<svg width="54" height="14" viewBox="0 0 54 14" fill="none" xmlns="http://www.w3.org/2000/svg">
<path d="M1 7C1 3.68629 3.68629 1 7 1C10.3137 1 13 3.68629 13 7C13 10.3137 10.3137 13 7 13C3.68629 13 1 10.3137 1 7Z" stroke="white" stroke-width="1.5"/>
<path d="M21 7C21 3.68629 23.6863 1 27 1C30.3137 1 33 3.68629 33 7C33 10.3137 30.3137 13 27 13C23.6863 13 21 10.3137 21 7Z" stroke="white" stroke-width="1.5"/>
<path d="M41 7C41 3.68629 43.6863 1 47 1C50.3137 1 53 3.68629 53 7C53 10.3137 50.3137 13 47 13C43.6863 13 41 10.3137 41 7Z" stroke="white" stroke-width="1.5"/>
</svg>
