<svg width="100" height="100" viewBox="0 0 100 100" fill="none" xmlns="http://www.w3.org/2000/svg">
<path d="M56.25 3.125H3.125V96.875H75V21.875H56.25V3.125Z" fill="white"/>
<path d="M62.5 3.125H59.375V18.75H75V15.625H71.875V12.5H68.75V9.375H65.625V6.25H62.5V3.125Z" fill="white"/>
<path d="M48.4375 43.75V40.625H50V34.375H46.875V37.5H45.3125V43.75H37.5V40.625H39.0625V34.375H35.9375V37.5H34.375V43.75H23.4375V46.875H32.8125V48.4375H31.25V53.125H23.4375V56.25H29.6875V59.375H28.125V65.625H31.25V64.0625V62.5H32.8125V56.25H40.625V57.8125V59.375H39.0625V65.625H42.1875V62.5H43.75V56.25H54.6875V53.125H45.3125V51.5625H46.875V46.875H54.6875V43.75H48.4375ZM43.75 48.4375H42.1875V53.125H34.375V51.5625H35.9375V46.875H43.75V48.4375Z" fill="black"/>
<path fill-rule="evenodd" clip-rule="evenodd" d="M0 0H62.5V3.125H59.375V18.75H75V15.625H78.125V81.25H87.5V84.375H93.75V87.5H100V100H0V0ZM75 21.875H56.25V3.125H3.125V96.875H75V21.875Z" fill="black"/>
<path d="M71.875 12.5H75V15.625H71.875V12.5Z" fill="black"/>
<path d="M68.75 9.375H71.875V12.5H68.75V9.375Z" fill="black"/>
<path d="M65.625 6.25H68.75V9.375H65.625V6.25Z" fill="black"/>
<path d="M65.625 6.25V3.125H62.5V6.25H65.625Z" fill="black"/>
</svg>
