<svg width="100" height="100" viewBox="0 0 100 100" fill="none" xmlns="http://www.w3.org/2000/svg">
<path d="M56.25 3.125H3.125V96.875H75V21.875H56.25V3.125Z" fill="white"/>
<path d="M62.5 3.125H59.375V18.75H75V15.625H71.875V12.5H68.75V9.375H65.625V6.25H62.5V3.125Z" fill="white"/>
<path fill-rule="evenodd" clip-rule="evenodd" d="M50 40.625V42.1875H51.5625V64.0625H50V65.625H28.125V64.0625H26.5625V35.9375H28.125V34.375H43.75V35.9375H45.3125V37.5H46.875V39.0625H48.4375V40.625H50ZM46.875 60.9375H48.4375V46.875H39.0625V37.5H31.25V39.0625H29.6875V60.9375H31.25V62.5H46.875V60.9375ZM45.3125 43.75V42.1875H43.75V40.625H42.1875V43.75H45.3125ZM43.75 53.125V50H34.375V53.125H43.75ZM43.75 57.8125V54.6875H34.375V57.8125H43.75Z" fill="black"/>
<path fill-rule="evenodd" clip-rule="evenodd" d="M0 0H62.5V3.125H59.375V18.75H75V15.625H78.125V81.25H87.5V84.375H93.75V87.5H100V100H0V0ZM75 21.875H56.25V3.125H3.125V96.875H75V21.875Z" fill="black"/>
<path d="M71.875 12.5H75V15.625H71.875V12.5Z" fill="black"/>
<path d="M68.75 9.375H71.875V12.5H68.75V9.375Z" fill="black"/>
<path d="M65.625 6.25H68.75V9.375H65.625V6.25Z" fill="black"/>
<path d="M65.625 6.25V3.125H62.5V6.25H65.625Z" fill="black"/>
</svg>
