<svg width="100" height="100" viewBox="0 0 100 100" fill="none" xmlns="http://www.w3.org/2000/svg">
<g clip-path="url(#clip0_336_20030)">
<path fill-rule="evenodd" clip-rule="evenodd" d="M9.375 3.125V9.375H3.125V65.625H6.25V68.75H12.5V71.875H18.75V75H25V78.125H31.25V81.25H37.5V84.375H43.75V87.5H50V90.625H56.25V93.75H62.5V96.875H68.75V40.625H71.875V96.875H75V28.125H71.875V25H68.75V21.875H62.5V18.75H56.25V15.625H43.75V18.75H40.625V15.625H37.5V12.5H34.375V9.375H28.125V6.25H21.875V3.125H9.375ZM65.625 37.5H68.75V40.625H65.625V37.5ZM59.375 34.375H65.625V37.5H59.375V34.375ZM53.125 31.25H59.375V34.375H53.125V31.25ZM46.875 28.125H53.125V31.25H46.875V28.125ZM40.625 25H46.875V28.125H40.625V25ZM34.375 21.875H40.625V25H34.375V21.875ZM28.125 18.75H34.375V21.875H28.125V18.75ZM21.875 15.625H28.125V18.75H21.875V15.625ZM15.625 12.5H21.875V15.625H15.625V12.5ZM15.625 12.5V9.375H9.375V12.5H15.625Z" fill="white"/>
<path fill-rule="evenodd" clip-rule="evenodd" d="M29.366 31.25L37.485 35.9375L37.485 37.5L41.5445 39.8438L41.5445 41.4063L42.8976 42.1875L42.8976 43.75L44.2508 44.5312L44.2508 46.0938L45.604 46.875L45.604 48.4375L46.9571 49.2188L46.9571 50.7812L48.3103 51.5625L48.3103 54.6875L48.3103 56.25L49.6635 57.0312L49.6635 60.1563L49.6635 61.7188L49.6635 63.2812L49.6635 66.4063L48.3103 65.625L48.3103 67.1875L48.3103 70.3125L46.9571 69.5312L46.9571 71.0938L45.604 70.3125L45.604 71.875L44.2508 71.0938L44.2508 72.6563L42.8976 71.875L42.8976 73.4375L41.5445 72.6563L41.5445 74.2188L37.485 71.875L37.485 73.4375L29.366 68.75L29.366 67.1875L25.3065 64.8438L25.3065 63.2812L23.9533 62.5L23.9533 60.9375L22.6002 60.1563L22.6002 58.5938L21.247 57.8125L21.247 56.25L19.8938 55.4688L19.8938 53.9063L18.5407 53.125L18.5407 50L18.5407 48.4375L17.1875 47.6563L17.1875 44.5312L17.1875 42.9688L17.1875 41.4063L17.1875 38.2812L18.5407 39.0625L18.5407 37.5L18.5407 34.375L19.8938 35.1563L19.8938 33.5938L21.247 34.375L21.247 32.8125L22.6002 33.5938L22.6002 32.0312L23.9533 32.8125L23.9533 31.25L25.3065 32.0312L25.3065 30.4688L29.366 32.8125L29.366 31.25ZM25.3065 49.2188L25.3065 53.9063L21.247 51.5625L21.247 50L19.8938 49.2188L19.8938 46.0938L25.3065 49.2188ZM28.0128 50.7812L38.8381 57.0312L38.8381 61.7188L28.0128 55.4688L28.0128 50.7812ZM41.5445 58.5938L41.5445 63.2812L45.604 65.625L45.604 64.0625L46.9571 64.8438L46.9571 61.7188L41.5445 58.5938ZM25.3065 41.4063L25.3065 46.0938L19.8938 42.9688L19.8938 39.8438L21.247 40.625L21.247 39.0625L25.3065 41.4063ZM28.0128 47.6563L38.8381 53.9063L38.8381 49.2188L28.0128 42.9688L28.0128 47.6563ZM46.9571 55.4688L46.9571 58.5938L41.5445 55.4688L41.5445 50.7812L45.604 53.125L45.604 54.6875L46.9571 55.4688ZM44.2508 67.9688L40.1913 65.625L40.1913 67.1875L40.1913 68.75L38.8381 67.9688L38.8381 69.5312L37.485 68.75L37.485 70.3125L40.1913 71.875L40.1913 70.3125L41.5445 71.0938L41.5445 69.5312L42.8976 70.3125L42.8976 68.75L44.2508 69.5312L44.2508 67.9688ZM37.485 64.0625L29.366 59.375L29.366 60.9375L29.366 62.5L30.7191 63.2812L30.7191 64.8438L32.0723 65.625L32.0723 67.1875L34.7786 68.75L34.7786 67.1875L36.1318 67.9688L36.1318 66.4063L37.485 67.1875L37.485 65.625L37.485 64.0625ZM26.6597 57.8125L22.6002 55.4688L22.6002 57.0312L23.9533 57.8125L23.9533 59.375L25.3065 60.1563L25.3065 61.7188L26.6597 62.5L26.6597 64.0625L29.366 65.625L29.366 64.0625L28.0128 63.2812L28.0128 61.7188L26.6597 60.9375L26.6597 59.375L26.6597 57.8125ZM26.6597 39.0625L22.6002 36.7188L22.6002 35.1563L23.9533 35.9375L23.9533 34.375L25.3065 35.1563L25.3065 33.5938L26.6597 34.375L26.6597 32.8125L29.366 34.375L29.366 35.9375L28.0128 35.1563L28.0128 36.7188L26.6597 35.9375L26.6597 37.5L26.6597 39.0625ZM37.485 45.3125L29.366 40.625L29.366 39.0625L29.366 37.5L30.7191 38.2812L30.7191 36.7188L32.0723 37.5L32.0723 35.9375L34.7786 37.5L34.7786 39.0625L36.1318 39.8438L36.1318 41.4063L37.485 42.1875L37.485 43.75L37.485 45.3125ZM44.2508 49.2188L40.1913 46.875L40.1913 45.3125L40.1913 43.75L38.8381 42.9688L38.8381 41.4063L37.485 40.625L37.485 39.0625L40.1913 40.625L40.1913 42.1875L41.5445 42.9688L41.5445 44.5312L42.8976 45.3125L42.8976 46.875L44.2508 47.6563L44.2508 49.2188Z" fill="black"/>
<path d="M6.25 0H21.875V3.125H9.375V9.375H3.125V65.625H6.25V68.75H0V6.25H6.25V0Z" fill="black"/>
<path d="M12.5 71.875V68.75H6.25V71.875H12.5Z" fill="black"/>
<path d="M18.75 75V71.875H12.5V75H18.75Z" fill="black"/>
<path d="M25 78.125V75H18.75V78.125H25Z" fill="black"/>
<path d="M31.25 81.25V78.125H25V81.25H31.25Z" fill="black"/>
<path d="M37.5 84.375V81.25H31.25V84.375H37.5Z" fill="black"/>
<path d="M43.75 87.5V84.375H37.5V87.5H43.75Z" fill="black"/>
<path d="M50 90.625V87.5H43.75V90.625H50Z" fill="black"/>
<path d="M56.25 93.75V90.625H50V93.75H56.25Z" fill="black"/>
<path d="M62.5 96.875V93.75H56.25V96.875H62.5Z" fill="black"/>
<path d="M68.75 40.625V96.875H62.5V100H84.375V96.875H87.5V93.75H90.625V90.625H93.75V87.5H96.875V84.375H100V68.75H93.75V65.625H87.5V62.5H78.125V28.125H75V25H71.875V21.875H68.75V18.75H62.5V15.625H56.25V12.5H43.75V15.625H40.625V12.5H37.5V9.375H34.375V6.25H28.125V3.125H21.875V6.25H28.125V9.375H34.375V12.5H37.5V15.625H40.625V18.75H43.75V15.625H56.25V18.75H62.5V21.875H68.75V25H71.875V28.125H75V96.875H71.875V40.625H68.75Z" fill="black"/>
<path d="M65.625 37.5V40.625H68.75V37.5H65.625Z" fill="black"/>
<path d="M59.375 34.375H65.625V37.5H59.375V34.375Z" fill="black"/>
<path d="M53.125 31.25H59.375V34.375H53.125V31.25Z" fill="black"/>
<path d="M46.875 28.125H53.125V31.25H46.875V28.125Z" fill="black"/>
<path d="M40.625 25H46.875V28.125H40.625V25Z" fill="black"/>
<path d="M34.375 21.875H40.625V25H34.375V21.875Z" fill="black"/>
<path d="M28.125 18.75H34.375V21.875H28.125V18.75Z" fill="black"/>
<path d="M21.875 15.625H28.125V18.75H21.875V15.625Z" fill="black"/>
<path d="M15.625 12.5H21.875V15.625H15.625V12.5Z" fill="black"/>
<path d="M15.625 12.5V9.375H9.375V12.5H15.625Z" fill="black"/>
</g>
<defs>
<clipPath id="clip0_336_20030">
<rect width="100" height="100" fill="white"/>
</clipPath>
</defs>
</svg>
