<svg width="100" height="100" viewBox="0 0 100 100" fill="none" xmlns="http://www.w3.org/2000/svg">
<g clip-path="url(#clip0_336_20030)">
<path fill-rule="evenodd" clip-rule="evenodd" d="M9.375 3.125V9.375H3.125V65.625H6.25V68.75H12.5V71.875H18.75V75H25V78.125H31.25V81.25H37.5V84.375H43.75V87.5H50V90.625H56.25V93.75H62.5V96.875H68.75V40.625H71.875V96.875H75V28.125H71.875V25H68.75V21.875H62.5V18.75H56.25V15.625H43.75V18.75H40.625V15.625H37.5V12.5H34.375V9.375H28.125V6.25H21.875V3.125H9.375ZM65.625 37.5H68.75V40.625H65.625V37.5ZM59.375 34.375H65.625V37.5H59.375V34.375ZM53.125 31.25H59.375V34.375H53.125V31.25ZM46.875 28.125H53.125V31.25H46.875V28.125ZM40.625 25H46.875V28.125H40.625V25ZM34.375 21.875H40.625V25H34.375V21.875ZM28.125 18.75H34.375V21.875H28.125V18.75ZM21.875 15.625H28.125V18.75H21.875V15.625ZM15.625 12.5H21.875V15.625H15.625V12.5ZM15.625 12.5V9.375H9.375V12.5H15.625Z" fill="white"/>
<g clip-path="url(#clip1_336_20030)">
<path d="M45.6039 51.5625L45.6039 50L40.1913 46.875L40.1913 42.1875L26.6596 34.375L26.6596 39.0625L21.247 35.9375L21.247 37.5L19.8938 36.7188L19.8938 57.0312L21.247 57.8125L21.247 59.375L45.6039 73.4375L45.6039 71.875L46.9571 72.6563L46.9571 52.3438L45.6039 51.5625ZM44.2508 67.9688L42.8976 67.1875L42.8976 68.75L40.1913 67.1875L40.1913 50L42.8976 51.5625L42.8976 53.125L44.2508 53.9063L44.2508 67.9688ZM22.6001 55.4688L22.6001 41.4063L23.9533 42.1875L23.9533 40.625L26.6596 42.1875L26.6596 59.375L23.9533 57.8125L23.9533 56.25L22.6001 55.4688ZM29.366 39.0625L37.4849 43.75L37.4849 45.3125L29.366 40.625L29.366 39.0625ZM29.366 43.75L37.4849 48.4375L37.4849 65.625L29.366 60.9375L29.366 43.75Z" fill="black"/>
</g>
<path d="M6.25 0H21.875V3.125H9.375V9.375H3.125V65.625H6.25V68.75H0V6.25H6.25V0Z" fill="black"/>
<path d="M12.5 71.875V68.75H6.25V71.875H12.5Z" fill="black"/>
<path d="M18.75 75V71.875H12.5V75H18.75Z" fill="black"/>
<path d="M25 78.125V75H18.75V78.125H25Z" fill="black"/>
<path d="M31.25 81.25V78.125H25V81.25H31.25Z" fill="black"/>
<path d="M37.5 84.375V81.25H31.25V84.375H37.5Z" fill="black"/>
<path d="M43.75 87.5V84.375H37.5V87.5H43.75Z" fill="black"/>
<path d="M50 90.625V87.5H43.75V90.625H50Z" fill="black"/>
<path d="M56.25 93.75V90.625H50V93.75H56.25Z" fill="black"/>
<path d="M62.5 96.875V93.75H56.25V96.875H62.5Z" fill="black"/>
<path d="M68.75 40.625V96.875H62.5V100H84.375V96.875H87.5V93.75H90.625V90.625H93.75V87.5H96.875V84.375H100V68.75H93.75V65.625H87.5V62.5H78.125V28.125H75V25H71.875V21.875H68.75V18.75H62.5V15.625H56.25V12.5H43.75V15.625H40.625V12.5H37.5V9.375H34.375V6.25H28.125V3.125H21.875V6.25H28.125V9.375H34.375V12.5H37.5V15.625H40.625V18.75H43.75V15.625H56.25V18.75H62.5V21.875H68.75V25H71.875V28.125H75V96.875H71.875V40.625H68.75Z" fill="black"/>
<path d="M65.625 37.5V40.625H68.75V37.5H65.625Z" fill="black"/>
<path d="M59.375 34.375H65.625V37.5H59.375V34.375Z" fill="black"/>
<path d="M53.125 31.25H59.375V34.375H53.125V31.25Z" fill="black"/>
<path d="M46.875 28.125H53.125V31.25H46.875V28.125Z" fill="black"/>
<path d="M40.625 25H46.875V28.125H40.625V25Z" fill="black"/>
<path d="M34.375 21.875H40.625V25H34.375V21.875Z" fill="black"/>
<path d="M28.125 18.75H34.375V21.875H28.125V18.75Z" fill="black"/>
<path d="M21.875 15.625H28.125V18.75H21.875V15.625Z" fill="black"/>
<path d="M15.625 12.5H21.875V15.625H15.625V12.5Z" fill="black"/>
<path d="M15.625 12.5V9.375H9.375V12.5H15.625Z" fill="black"/>
</g>
<defs>
<clipPath id="clip0_336_20030">
<rect width="100" height="100" fill="white"/>
</clipPath>
<clipPath id="clip1_336_20030">
<rect width="37.5" height="37.5" fill="white" transform="matrix(0.866025 0.5 -2.20305e-08 1 17.1875 24.2188)"/>
</clipPath>
</defs>
</svg>
