<svg width="100" height="100" viewBox="0 0 100 100" fill="none" xmlns="http://www.w3.org/2000/svg">
<g clip-path="url(#clip0_359_20800)">
<path fill-rule="evenodd" clip-rule="evenodd" d="M9.375 3.125V9.375H3.125V65.625H6.25V68.75H12.5V71.875H18.75V75H25V78.125H31.25V81.25H37.5V84.375H43.75V87.5H50V90.625H56.25V93.75H62.5V96.875H68.75V40.625H71.875V96.875H75V28.125H71.875V25H68.75V21.875H62.5V18.75H56.25V15.625H43.75V18.75H40.625V15.625H37.5V12.5H34.375V9.375H28.125V6.25H21.875V3.125H9.375ZM65.625 37.5H68.75V40.625H65.625V37.5ZM59.375 34.375H65.625V37.5H59.375V34.375ZM53.125 31.25H59.375V34.375H53.125V31.25ZM46.875 28.125H53.125V31.25H46.875V28.125ZM40.625 25H46.875V28.125H40.625V25ZM34.375 21.875H40.625V25H34.375V21.875ZM28.125 18.75H34.375V21.875H28.125V18.75ZM21.875 15.625H28.125V18.75H21.875V15.625ZM15.625 12.5H21.875V15.625H15.625V12.5ZM15.625 12.5V9.375H9.375V12.5H15.625Z" fill="#4D7BFF"/>
<path fill-rule="evenodd" clip-rule="evenodd" d="M41.5444 38.2812L41.5444 39.8438L42.8976 40.625L42.8976 42.1875L44.2507 42.9688L44.2507 49.2188L42.8976 48.4375L42.8976 50L41.5444 49.2188L41.5444 41.4063L34.7786 37.5L34.7786 45.3125L41.5444 49.2188L41.5444 52.3438L44.2507 53.9063L44.2507 61.7188L42.8976 60.9375L42.8976 62.5L41.5444 61.7188L41.5444 63.2812L36.1317 60.1563L36.1317 58.5938L34.7786 57.8125L34.7786 67.1875L33.4254 66.4063L33.4254 67.9688L32.0722 67.1875L32.0722 68.75L25.3064 64.8438L25.3064 61.7188L30.7191 64.8438L30.7191 63.2812L32.0722 64.0625L32.0722 57.8125L25.3064 53.9063L25.3064 50.7812L32.0722 54.6875L32.0723 46.875L25.3064 42.9688L25.3064 39.8438L32.0723 43.75L32.0723 35.9375L25.3064 32.0312L25.3064 39.8438L23.9533 39.0625L23.9533 37.5L22.6001 36.7188L22.6001 30.4688L23.9533 31.25L23.9533 29.6875L25.3064 30.4688L25.3064 28.9063L41.5444 38.2812ZM36.1317 49.2188L40.1912 51.5625L40.1912 53.125L41.5444 53.9063L41.5444 58.5938L40.1912 57.8125L40.1912 59.375L34.7786 56.25L34.7786 50L36.1317 50.7812L36.1317 49.2188Z" fill="black"/>
<path d="M25.3064 42.9688L22.6001 41.4063L22.6001 49.2188L25.3064 50.7812L25.3064 42.9688Z" fill="black"/>
<path d="M25.3064 53.9063L25.3064 61.7188L22.6001 60.1563L22.6001 53.9063L23.9533 54.6875L23.9533 53.125L25.3064 53.9063Z" fill="black"/>
<path d="M6.25 0H21.875V3.125H9.375V9.375H3.125V65.625H6.25V68.75H0V6.25H6.25V0Z" fill="black"/>
<path d="M12.5 71.875V68.75H6.25V71.875H12.5Z" fill="black"/>
<path d="M18.75 75V71.875H12.5V75H18.75Z" fill="black"/>
<path d="M25 78.125V75H18.75V78.125H25Z" fill="black"/>
<path d="M31.25 81.25V78.125H25V81.25H31.25Z" fill="black"/>
<path d="M37.5 84.375V81.25H31.25V84.375H37.5Z" fill="black"/>
<path d="M43.75 87.5V84.375H37.5V87.5H43.75Z" fill="black"/>
<path d="M50 90.625V87.5H43.75V90.625H50Z" fill="black"/>
<path d="M56.25 93.75V90.625H50V93.75H56.25Z" fill="black"/>
<path d="M62.5 96.875V93.75H56.25V96.875H62.5Z" fill="black"/>
<path d="M68.75 40.625V96.875H62.5V100H84.375V96.875H87.5V93.75H90.625V90.625H93.75V87.5H96.875V84.375H100V68.75H93.75V65.625H87.5V62.5H78.125V28.125H75V25H71.875V21.875H68.75V18.75H62.5V15.625H56.25V12.5H43.75V15.625H40.625V12.5H37.5V9.375H34.375V6.25H28.125V3.125H21.875V6.25H28.125V9.375H34.375V12.5H37.5V15.625H40.625V18.75H43.75V15.625H56.25V18.75H62.5V21.875H68.75V25H71.875V28.125H75V96.875H71.875V40.625H68.75Z" fill="black"/>
<path d="M65.625 37.5V40.625H68.75V37.5H65.625Z" fill="black"/>
<path d="M59.375 34.375H65.625V37.5H59.375V34.375Z" fill="black"/>
<path d="M53.125 31.25H59.375V34.375H53.125V31.25Z" fill="black"/>
<path d="M46.875 28.125H53.125V31.25H46.875V28.125Z" fill="black"/>
<path d="M40.625 25H46.875V28.125H40.625V25Z" fill="black"/>
<path d="M34.375 21.875H40.625V25H34.375V21.875Z" fill="black"/>
<path d="M28.125 18.75H34.375V21.875H28.125V18.75Z" fill="black"/>
<path d="M21.875 15.625H28.125V18.75H21.875V15.625Z" fill="black"/>
<path d="M15.625 12.5H21.875V15.625H15.625V12.5Z" fill="black"/>
<path d="M15.625 12.5V9.375H9.375V12.5H15.625Z" fill="black"/>
</g>
<defs>
<clipPath id="clip0_359_20800">
<rect width="100" height="100" fill="white"/>
</clipPath>
</defs>
</svg>
