<svg width="1920" height="1492" viewBox="0 0 1920 1492" fill="none" xmlns="http://www.w3.org/2000/svg">
<path d="M2343 778.945C2343 1208.59 1723.81 1556.88 960 1556.88M2343 778.945C2343 349.302 1723.81 1.00776 960 1.00776M2343 778.945H-423M960 1556.88C196.19 1556.88 -423 1208.59 -423 778.945M960 1556.88V1.00776M-423 778.945C-423 349.302 196.19 1.00776 960 1.00776M960 1C441.772 66.3277 48.0838 389.769 48.0837 778.938C48.0836 1168.11 441.771 1491.55 960 1556.88M960 1C294.409 66.3277 -211.229 389.769 -211.229 778.938C-211.229 1168.11 294.408 1491.55 960 1556.88M960 1C701.987 104.942 514.846 413.929 514.846 778.938C514.846 1143.95 701.987 1452.93 960 1556.88M960 1C824.343 170.274 735.262 455.546 735.262 778.938C735.262 1102.33 824.343 1387.6 960 1556.88M960 1C564.213 104.942 277.143 413.928 277.143 778.938C277.143 1143.95 564.213 1452.93 960 1556.88M960.001 1556.89C1478.23 1491.56 1871.92 1168.12 1871.92 778.949C1871.92 389.781 1478.23 66.3392 960.002 1.01134M960.001 1556.89C1625.59 1491.56 2131.23 1168.12 2131.23 778.949C2131.23 389.781 1625.59 66.3392 960.002 1.01134M960.001 1556.89C1218.01 1452.94 1405.15 1143.96 1405.15 778.949C1405.16 413.94 1218.01 104.953 960.002 1.01134M960.001 1556.89C1095.66 1387.61 1184.74 1102.34 1184.74 778.949C1184.74 455.557 1095.66 170.285 960.002 1.01134M960.001 1556.89C1355.79 1452.94 1642.86 1143.96 1642.86 778.949C1642.86 413.94 1355.79 104.953 960.002 1.01134M-258.771 409.425C58.9382 511.892 487.921 574.737 959.998 574.737C1432.08 574.737 1861.06 511.892 2178.77 409.425M2278.17 540.702C1912.63 629.155 1455.71 681.703 960 681.703C464.288 681.703 7.36447 629.155 -358.172 540.702M-120.47 292.734C168.32 403.244 546.298 470.201 959.998 470.201C1373.7 470.201 1751.68 403.244 2040.47 292.734M220.958 120.13C432.685 209.225 686.774 261.131 959.998 261.131C1233.22 261.131 1487.31 209.225 1699.04 120.13M1247.4 17.7481C1156.89 44.5679 1060.3 59.0619 959.998 59.0619C859.698 59.0619 763.105 44.5679 672.593 17.7481M1871.91 193.061C1663.44 297.972 1330.2 365.666 959.999 365.666C589.802 365.666 256.559 297.972 48.083 193.061M1487.27 59.3529C1344.08 124.649 1160.35 163.888 959.998 163.888C759.645 163.888 575.918 124.649 432.729 59.3529M2178.77 1148.46C1861.06 1045.99 1432.08 983.148 960 983.148C487.923 983.148 58.9398 1045.99 -258.769 1148.46M-358.174 1017.18C7.3633 928.73 464.287 876.182 959.999 876.182C1455.71 876.182 1912.63 928.731 2278.17 1017.18M2040.47 1265.15C1751.68 1154.64 1373.7 1087.68 959.999 1087.68C546.298 1087.68 168.32 1154.64 -120.47 1265.15M1699.04 1437.76C1487.31 1348.66 1233.22 1296.75 959.997 1296.75C686.773 1296.75 432.684 1348.66 220.957 1437.76M672.594 1540.14C763.107 1513.32 859.7 1498.82 959.999 1498.82C1060.3 1498.82 1156.89 1513.32 1247.4 1540.14M48.0837 1364.82C256.56 1259.91 589.803 1192.22 960 1192.22C1330.2 1192.22 1663.44 1259.91 1871.92 1364.82M432.729 1498.53C575.917 1433.24 759.644 1394 959.998 1394C1160.35 1394 1344.08 1433.24 1487.27 1498.53" stroke="white"/>
</svg>
